<mxfile host="app.diagrams.net" agent="Mozilla/5.0 (Windows NT 10.0; Win64; x64) AppleWebKit/537.36 (KHTML, like Gecko) Chrome/131.0.0.0 Safari/537.36 OPR/116.0.0.0" version="26.0.14">
  <diagram name="Page-1" id="tgYV_Ypd_4CBDbcCih5t">
    <mxGraphModel dx="1392" dy="761" grid="1" gridSize="10" guides="1" tooltips="1" connect="1" arrows="1" fold="1" page="1" pageScale="1" pageWidth="850" pageHeight="1100" math="0" shadow="0">
      <root>
        <mxCell id="0" />
        <mxCell id="1" parent="0" />
        <mxCell id="utLp5yWXbD-UK6CVgnJv-10" value="" style="rounded=0;whiteSpace=wrap;html=1;" vertex="1" parent="1">
          <mxGeometry x="140" y="170" width="450" height="230" as="geometry" />
        </mxCell>
        <mxCell id="utLp5yWXbD-UK6CVgnJv-6" style="edgeStyle=orthogonalEdgeStyle;rounded=0;orthogonalLoop=1;jettySize=auto;html=1;exitX=1;exitY=0.5;exitDx=0;exitDy=0;entryX=0;entryY=0.5;entryDx=0;entryDy=0;" edge="1" parent="1" source="utLp5yWXbD-UK6CVgnJv-1" target="utLp5yWXbD-UK6CVgnJv-4">
          <mxGeometry relative="1" as="geometry" />
        </mxCell>
        <mxCell id="utLp5yWXbD-UK6CVgnJv-1" value="Questline #1&lt;div&gt;Questline #2&lt;/div&gt;&lt;div&gt;Questline #3&lt;/div&gt;" style="rounded=0;whiteSpace=wrap;html=1;" vertex="1" parent="1">
          <mxGeometry x="180" y="220" width="150" height="80" as="geometry" />
        </mxCell>
        <mxCell id="utLp5yWXbD-UK6CVgnJv-3" style="edgeStyle=orthogonalEdgeStyle;rounded=0;orthogonalLoop=1;jettySize=auto;html=1;entryX=0;entryY=0.5;entryDx=0;entryDy=0;" edge="1" parent="1" source="utLp5yWXbD-UK6CVgnJv-2" target="utLp5yWXbD-UK6CVgnJv-1">
          <mxGeometry relative="1" as="geometry" />
        </mxCell>
        <mxCell id="utLp5yWXbD-UK6CVgnJv-2" value="Main Task:&lt;br&gt;Ensure that all goes well" style="whiteSpace=wrap;html=1;" vertex="1" parent="1">
          <mxGeometry x="30" y="70" width="160" height="60" as="geometry" />
        </mxCell>
        <mxCell id="utLp5yWXbD-UK6CVgnJv-4" value="Small Tasks" style="whiteSpace=wrap;html=1;" vertex="1" parent="1">
          <mxGeometry x="410" y="230" width="120" height="60" as="geometry" />
        </mxCell>
        <mxCell id="utLp5yWXbD-UK6CVgnJv-9" style="edgeStyle=orthogonalEdgeStyle;rounded=0;orthogonalLoop=1;jettySize=auto;html=1;" edge="1" parent="1" source="utLp5yWXbD-UK6CVgnJv-7" target="utLp5yWXbD-UK6CVgnJv-8">
          <mxGeometry relative="1" as="geometry" />
        </mxCell>
        <mxCell id="utLp5yWXbD-UK6CVgnJv-14" style="edgeStyle=orthogonalEdgeStyle;rounded=0;orthogonalLoop=1;jettySize=auto;html=1;entryX=0.5;entryY=1;entryDx=0;entryDy=0;" edge="1" parent="1" source="utLp5yWXbD-UK6CVgnJv-7" target="utLp5yWXbD-UK6CVgnJv-13">
          <mxGeometry relative="1" as="geometry" />
        </mxCell>
        <mxCell id="utLp5yWXbD-UK6CVgnJv-7" value="Chaos Factor" style="ellipse;whiteSpace=wrap;html=1;" vertex="1" parent="1">
          <mxGeometry x="300" y="570" width="100" height="100" as="geometry" />
        </mxCell>
        <mxCell id="utLp5yWXbD-UK6CVgnJv-8" value="Augments" style="ellipse;whiteSpace=wrap;html=1;" vertex="1" parent="1">
          <mxGeometry x="420" y="430" width="70" height="70" as="geometry" />
        </mxCell>
        <mxCell id="utLp5yWXbD-UK6CVgnJv-12" style="edgeStyle=orthogonalEdgeStyle;rounded=0;orthogonalLoop=1;jettySize=auto;html=1;entryX=0.698;entryY=1.022;entryDx=0;entryDy=0;entryPerimeter=0;" edge="1" parent="1" source="utLp5yWXbD-UK6CVgnJv-8" target="utLp5yWXbD-UK6CVgnJv-10">
          <mxGeometry relative="1" as="geometry" />
        </mxCell>
        <mxCell id="utLp5yWXbD-UK6CVgnJv-13" value="Omens" style="ellipse;whiteSpace=wrap;html=1;" vertex="1" parent="1">
          <mxGeometry x="200" y="430" width="70" height="70" as="geometry" />
        </mxCell>
        <mxCell id="utLp5yWXbD-UK6CVgnJv-15" style="edgeStyle=orthogonalEdgeStyle;rounded=0;orthogonalLoop=1;jettySize=auto;html=1;entryX=0.211;entryY=1.011;entryDx=0;entryDy=0;entryPerimeter=0;" edge="1" parent="1" source="utLp5yWXbD-UK6CVgnJv-13" target="utLp5yWXbD-UK6CVgnJv-10">
          <mxGeometry relative="1" as="geometry" />
        </mxCell>
        <mxCell id="utLp5yWXbD-UK6CVgnJv-16" value="Recurring taks" style="rounded=0;whiteSpace=wrap;html=1;" vertex="1" parent="1">
          <mxGeometry x="305" y="320" width="120" height="60" as="geometry" />
        </mxCell>
      </root>
    </mxGraphModel>
  </diagram>
</mxfile>
